<svg xmlns="http://www.w3.org/2000/svg" version="1.1" xmlnsXlink="http://www.w3.org/1999/xlink"
    xmlnsSvgjs="http://svgjs.dev/svgjs" width="1000" height="1000">
    <rect width="100%" height="100%" fill="#61777f"></rect>
    <!-- the L letter -->
    <svg xmlns="http://www.w3.org/2000/svg"
        xmlnsXlink="http://www.w3.org/1999/xlink" version="1.1"
        viewBox="-37 -21 100 10">
        <path
            d="M16.36-34.99L16.36-34.99Q16.33-34.4 16.26-33.53 16.19-32.67 16.1-31.7 16.02-30.74 15.91-29.75 15.8-28.76 15.71-27.93 15.63-27.1 15.58-26.5 15.53-25.9 15.53-25.73L15.53-25.73Q15.43-24.22 15.32-22.92 15.21-21.63 15.09-20.36 14.97-19.09 14.83-17.74 14.7-16.38 14.55-14.75 14.4-13.11 14.22-11.11 14.04-9.11 13.84-6.52L13.84-6.52 23.95-7.54Q24.63-7.62 25.07-7.62L25.07-7.62Q25.61-7.62 25.74-7.45 25.88-7.28 25.88-6.91L25.88-6.91Q25.88-6.86 25.85-6.77 25.83-6.69 25.74-6.45 25.66-6.2 25.5-5.74 25.34-5.27 25.07-4.44L25.07-4.44 24.54-2.83Q24.27-2.05 24.04-1.43 23.8-0.81 23.46-0.35 23.12 0.1 22.61 0.37 22.09 0.63 21.29 0.71L21.29 0.71Q20.78 0.76 19.9 0.79 19.02 0.83 17.87 0.87 16.72 0.9 15.39 0.95 14.06 1 12.67 1.07L12.67 1.07Q11.3 1.12 9.91 1.14 8.52 1.15 7.28 1.17 6.03 1.2 4.98 1.22 3.93 1.25 3.25 1.27L3.25 1.27Q2.61 1.27 2.33 1.17 2.05 1.07 2.05 0.85L2.05 0.85Q2.05 0.59 2.22 0.09 2.39-0.42 2.66-1.04 2.93-1.66 3.26-2.33 3.59-3 3.91-3.64L3.91-3.64 4.57-12.35Q4.76-14.58 4.96-16.87 5.15-19.17 5.3-21.31L5.3-21.31 5.71-27.78Q5.86-30.08 5.91-31.12 5.96-32.15 5.96-32.25L5.96-32.25Q6.01-32.69 6.03-32.98 6.05-33.28 6.12-33.47 6.18-33.67 6.3-33.76 6.42-33.86 6.67-33.91L6.67-33.91 15.23-35.94Q15.5-36.04 15.89-36.04L15.89-36.04Q16.16-36.04 16.27-35.88 16.38-35.72 16.38-35.28L16.38-35.28Q16.38-35.23 16.37-35.14 16.36-35.06 16.36-34.99Z"
            opacity="1"
            fill="#ffffff"
            data-fill-palette-color="primary"></path>
    </svg>
    <!-- the gear container -->
    <svg xmlns="http://www.w3.org/2000/svg"
        xmlnsXlink="http://www.w3.org/1999/xlink" version="1.1"
        preserveAspectRatio="xMidYMid meet"
        viewBox="0 0 100 100">
        <path
            d="M94.833 46.257l-0.134-1.62-5.358-1.865c-0.206-1.13-0.459-2.249-0.759-3.347l4.023-4.005L92.022 33.9c-0.893-2.327-1.984-4.589-3.244-6.725l-0.826-1.399-5.637 0.651c-0.668-0.912-1.384-1.805-2.141-2.672l1.888-5.355-1.182-1.116c-1.835-1.732-3.799-3.305-5.838-4.674l-1.351-0.906-4.813 3.034c-1.008-0.54-2.04-1.038-3.09-1.489l-0.626-5.655-1.55-0.491c-2.349-0.745-4.8-1.3-7.285-1.65L54.72 5.225l-3.009 4.817c-1.193-0.057-2.229-0.057-3.422 0L45.28 5.225l-1.608 0.227c-2.485 0.35-4.937 0.905-7.285 1.65l-1.55 0.491-0.626 5.655c-1.05 0.452-2.082 0.95-3.09 1.49l-4.813-3.035-1.351 0.907c-2.039 1.369-4.003 2.941-5.838 4.674L17.938 18.4l1.888 5.355c-0.756 0.866-1.471 1.759-2.141 2.672l-5.637-0.651-0.826 1.4c-1.26 2.136-2.352 4.399-3.244 6.725l-0.583 1.519 4.023 4.005c-0.3 1.098-0.553 2.217-0.759 3.347l-5.358 1.865-0.134 1.62C5.055 47.612 5 48.836 5 50s0.055 2.389 0.167 3.742l0.134 1.62 5.358 1.865c0.206 1.131 0.459 2.249 0.759 3.347l-4.023 4.005 0.583 1.52c0.894 2.328 1.984 4.591 3.244 6.726l0.826 1.399 5.636-0.65c0.669 0.912 1.385 1.806 2.142 2.672l-1.888 5.355 1.183 1.115c1.839 1.737 3.803 3.31 5.838 4.674l1.351 0.905 4.813-3.033c1.008 0.54 2.04 1.037 3.09 1.489l0.626 5.654 1.55 0.492c2.347 0.745 4.798 1.301 7.284 1.651l1.609 0.227 3.009-4.817c1.195 0.057 2.227 0.057 3.422 0l3.009 4.817 1.609-0.227c2.486-0.351 4.938-0.906 7.284-1.651l1.55-0.492 0.626-5.653c1.05-0.452 2.083-0.949 3.09-1.49l4.812 3.035 1.352-0.906c2.038-1.368 4.002-2.94 5.838-4.675l1.183-1.115-1.888-5.355c0.757-0.868 1.473-1.761 2.141-2.672l5.638 0.651 0.825-1.4c1.263-2.141 2.354-4.403 3.243-6.726l0.582-1.519-4.021-4.005c0.3-1.098 0.553-2.217 0.759-3.348l5.358-1.865 0.134-1.62C94.945 52.389 95 51.164 95 50S94.945 47.612 94.833 46.257zM89.957 51.719l-5.103 1.777-0.216 1.506c-0.271 1.894-0.694 3.759-1.258 5.543l-0.458 1.451 3.823 3.807c-0.451 1.046-0.946 2.074-1.484 3.078l-5.36-0.62-0.85 1.262c-1.034 1.537-2.229 3.03-3.551 4.437l-1.042 1.108 1.796 5.097c-0.869 0.759-1.765 1.477-2.681 2.148l-4.575-2.886-1.313 0.771c-1.63 0.958-3.351 1.787-5.116 2.467l-1.42 0.546-0.595 5.376c-1.094 0.297-2.208 0.549-3.335 0.754l-2.865-4.587-1.515 0.121c-2.105 0.168-3.576 0.168-5.682 0l-1.515-0.121-2.865 4.587c-1.127-0.205-2.241-0.457-3.335-0.754l-0.595-5.375-1.419-0.547c-1.765-0.68-3.487-1.51-5.119-2.468l-1.313-0.77-4.575 2.884c-0.914-0.67-1.809-1.388-2.679-2.147l1.796-5.096-1.042-1.108c-1.319-1.404-2.515-2.897-3.553-4.438l-0.85-1.261-5.358 0.619c-0.537-1.002-1.033-2.03-1.484-3.078l3.823-3.807-0.458-1.451c-0.563-1.784-0.986-3.649-1.258-5.542l-0.216-1.506-5.103-1.777C10.015 51.121 10 50.551 10 50s0.015-1.121 0.043-1.719l5.103-1.776 0.216-1.506c0.271-1.893 0.694-3.758 1.258-5.543l0.458-1.451-3.823-3.807c0.451-1.047 0.947-2.076 1.484-3.078l5.359 0.619 0.85-1.261c1.039-1.542 2.234-3.035 3.552-4.437l1.042-1.108-1.796-5.097c0.869-0.759 1.764-1.477 2.68-2.148l4.576 2.885 1.313-0.771c1.63-0.958 3.352-1.788 5.117-2.467l1.419-0.546 0.595-5.375c1.094-0.297 2.208-0.549 3.335-0.754l2.865 4.588 1.516-0.122c2.102-0.169 3.578-0.169 5.68 0l1.516 0.122 2.865-4.588c1.127 0.205 2.241 0.457 3.335 0.754l0.595 5.375 1.419 0.546c1.766 0.68 3.487 1.509 5.118 2.467l1.312 0.771 4.576-2.884c0.916 0.671 1.811 1.389 2.68 2.148l-1.796 5.097 1.042 1.108c1.32 1.405 2.516 2.898 3.551 4.436l0.85 1.262 5.36-0.619c0.537 1.002 1.033 2.03 1.484 3.077l-3.823 3.807 0.458 1.451c0.563 1.785 0.986 3.65 1.258 5.543l0.216 1.506 5.103 1.776C89.985 48.879 90 49.449 90 50S89.985 51.121 89.957 51.719z"
            fill="#ffffff"
            data-fill-palette-color="accent"></path>
    </svg>
</svg>